<svg width="174" height="52" viewBox="0 0 174 52" fill="none" xmlns="http://www.w3.org/2000/svg">
<path d="M5.56641 30H4.36523V22.7988H0.117188V21.5977H9.81445V22.7988H5.56641V30ZM17.3613 30H16.1602V27.3105H12.1934V26.1094H16.1602V23.4023H17.3613V30ZM11.625 30H10.4238V23.4023H11.625V30ZM25.9863 30H19.0957V23.3789H25.9863V24.5859H20.3086V28.7871H25.9863V30ZM25.2188 27.2637H20.877V26.0508H25.2188V27.2637ZM34.5586 28.0547C34.5586 28.3242 34.5078 28.5781 34.4062 28.8164C34.3047 29.0508 34.166 29.2559 33.9902 29.4316C33.8184 29.6074 33.6133 29.7461 33.375 29.8477C33.1406 29.9492 32.8887 30 32.6191 30H27.0117V28.7988H32.6191C32.7246 28.7988 32.8223 28.7812 32.9121 28.7461C33.0059 28.707 33.0859 28.6543 33.1523 28.5879C33.2227 28.5176 33.2773 28.4375 33.3164 28.3477C33.3555 28.2578 33.375 28.1602 33.375 28.0547C33.375 27.9492 33.3555 27.8516 33.3164 27.7617C33.2773 27.668 33.2227 27.5879 33.1523 27.5215C33.0859 27.4512 33.0059 27.3965 32.9121 27.3574C32.8223 27.3184 32.7246 27.2988 32.6191 27.2988H28.9453C28.6797 27.2988 28.4297 27.248 28.1953 27.1465C27.9609 27.0449 27.7559 26.9062 27.5801 26.7305C27.4043 26.5508 27.2656 26.3418 27.1641 26.1035C27.0625 25.8652 27.0117 25.6113 27.0117 25.3418C27.0117 25.0801 27.0625 24.832 27.1641 24.5977C27.2656 24.3594 27.4043 24.1523 27.5801 23.9766C27.7559 23.8008 27.9609 23.6621 28.1953 23.5605C28.4297 23.4551 28.6797 23.4023 28.9453 23.4023H34.1191V24.5859H28.9453C28.8438 24.5859 28.7461 24.6074 28.6523 24.6504C28.5625 24.6895 28.4844 24.7441 28.418 24.8145C28.3516 24.8809 28.2988 24.9609 28.2598 25.0547C28.2207 25.1445 28.2012 25.2402 28.2012 25.3418C28.2012 25.4473 28.2207 25.5469 28.2598 25.6406C28.2988 25.7305 28.3516 25.8105 28.418 25.8809C28.4844 25.9473 28.5625 26 28.6523 26.0391C28.7461 26.0781 28.8438 26.0977 28.9453 26.0977H32.6191C32.8887 26.0977 33.1406 26.1504 33.375 26.2559C33.6133 26.3574 33.8184 26.498 33.9902 26.6777C34.166 26.8535 34.3047 27.0605 34.4062 27.2988C34.5078 27.5371 34.5586 27.7891 34.5586 28.0547ZM36.9961 30H35.8066V23.4023H36.9961V30ZM45.9609 28.0547C45.9609 28.3242 45.9102 28.5781 45.8086 28.8164C45.707 29.0508 45.5684 29.2559 45.3926 29.4316C45.2207 29.6074 45.0156 29.7461 44.7773 29.8477C44.543 29.9492 44.291 30 44.0215 30H38.4141V28.7988H44.0215C44.127 28.7988 44.2246 28.7812 44.3145 28.7461C44.4082 28.707 44.4883 28.6543 44.5547 28.5879C44.625 28.5176 44.6797 28.4375 44.7188 28.3477C44.7578 28.2578 44.7773 28.1602 44.7773 28.0547C44.7773 27.9492 44.7578 27.8516 44.7188 27.7617C44.6797 27.668 44.625 27.5879 44.5547 27.5215C44.4883 27.4512 44.4082 27.3965 44.3145 27.3574C44.2246 27.3184 44.127 27.2988 44.0215 27.2988H40.3477C40.082 27.2988 39.832 27.248 39.5977 27.1465C39.3633 27.0449 39.1582 26.9062 38.9824 26.7305C38.8066 26.5508 38.668 26.3418 38.5664 26.1035C38.4648 25.8652 38.4141 25.6113 38.4141 25.3418C38.4141 25.0801 38.4648 24.832 38.5664 24.5977C38.668 24.3594 38.8066 24.1523 38.9824 23.9766C39.1582 23.8008 39.3633 23.6621 39.5977 23.5605C39.832 23.4551 40.082 23.4023 40.3477 23.4023H45.5215V24.5859H40.3477C40.2461 24.5859 40.1484 24.6074 40.0547 24.6504C39.9648 24.6895 39.8867 24.7441 39.8203 24.8145C39.7539 24.8809 39.7012 24.9609 39.6621 25.0547C39.623 25.1445 39.6035 25.2402 39.6035 25.3418C39.6035 25.4473 39.623 25.5469 39.6621 25.6406C39.7012 25.7305 39.7539 25.8105 39.8203 25.8809C39.8867 25.9473 39.9648 26 40.0547 26.0391C40.1484 26.0781 40.2461 26.0977 40.3477 26.0977H44.0215C44.291 26.0977 44.543 26.1504 44.7773 26.2559C45.0156 26.3574 45.2207 26.498 45.3926 26.6777C45.5684 26.8535 45.707 27.0605 45.8086 27.2988C45.9102 27.5371 45.9609 27.7891 45.9609 28.0547Z" fill="black"/>
<path d="M86.8861 31.4044L97.7465 27.0376C97.7465 27.0376 113.706 31.4044 103.706 38.639C93.707 45.8736 65.1654 52 65.1654 52C98.3425 42.8102 103.772 37.1855 86.8861 31.4044Z" fill="#16C79A"/>
<path d="M83.4426 33.6204C83.4426 33.6204 84.6535 32.8325 85.2306 32.5125C87.4159 33.6204 99.3358 36.2927 89.0052 42.0282C78.6746 47.7636 65.6289 51.6742 65.6289 51.6742C97.9452 39.2256 93.3759 36.8792 83.4426 33.6204Z" fill="#16C79A"/>
<path d="M70.8604 23.2575L60.7285 26.2556C60.7285 26.2556 44.6758 20.4052 55.3645 14.198C66.0532 7.99083 97.0052 4.32235 97.0052 4.32235C63.0566 10.1785 54.6518 15.8328 70.8604 23.2575Z" fill="#16C79A"/>
<path d="M76.5555 21.8236L74.0391 22.4102C74.0391 22.4102 59.487 16.8405 70.3518 12.1576C81.2165 7.47475 94.5959 4.87654 94.5959 4.87654C61.6718 13.7171 65.6824 16.8758 76.5555 21.8236Z" fill="#16C79A"/>
<path d="M61.3245 26.975L78.6355 22.0843L96.1572 26.8421L78.818 33.6856L61.3245 26.975Z" fill="#11698E"/>
<path d="M72.3835 32.0562L78.8733 34.4677L85.6941 32.0562L87.8132 37.9221C87.8132 37.9221 85.6279 38.7042 78.8733 38.7693C72.1187 38.8345 69.9333 37.9221 69.9333 37.9221L72.3835 32.0562Z" fill="#11698E"/>
<path d="M78.4112 25.7151L77.4143 25.6365L77.3332 26.6333L77.2804 27.2829L77.1996 28.2756L78.1922 28.3579L90.4552 29.374L90.4552 30.9507L90.4552 31.948L91.4529 31.948L92.1899 31.948L93.1926 31.948L93.1926 30.9457L93.1926 27.8013L93.1926 26.8795L92.2734 26.8071L78.4112 25.7151Z" fill="white" stroke="#11698E" stroke-width="2"/>
<path d="M90.4876 30.1238L89.9919 30.4133V30.9873V31.9259V32.7084L90.7515 32.8965C91.1297 32.9902 91.4788 33.0507 91.8531 33.0505C92.227 33.0504 92.5759 32.9898 92.953 32.8968L93.7137 32.7093V31.9259V30.9873V30.3727L93.1653 30.0951L92.7017 29.8605L92.4888 29.7527H92.2501H91.3936H91.123L90.8893 29.8892L90.4876 30.1238Z" fill="white" stroke="#11698E" stroke-width="2"/>
<path d="M90.1531 32.357L89.727 32.6557V33.1759V34.6929V35.1554L90.0794 35.4549C90.3732 35.7046 90.7318 35.8334 91.0203 35.9042C91.327 35.9793 91.6552 36.0129 91.9661 36.0129C92.2753 36.0129 92.603 35.9796 92.9056 35.8997C93.1768 35.8281 93.5716 35.6823 93.8608 35.3546L94.111 35.0711V34.6929V33.1759V32.6557L93.6849 32.357L93.5856 32.2874L93.4996 32.0163L93.2541 31.2419L92.4459 31.3235C91.9937 31.3692 91.7743 31.3712 91.3354 31.3242L90.4373 31.228L90.2505 32.1117L90.2066 32.3195L90.1531 32.357Z" fill="white" stroke="#11698E" stroke-width="2"/>
<path d="M116.566 30H115.365V22.7988H111.117V21.5977H120.814V22.7988H116.566V30ZM129.193 30H127.559L125.684 28.2129H123.252V27.0234H126.574C126.742 27.0234 126.9 26.9902 127.049 26.9238C127.197 26.8574 127.326 26.7695 127.436 26.6602C127.545 26.5469 127.631 26.416 127.693 26.2676C127.756 26.1191 127.787 25.9629 127.787 25.7988C127.787 25.6309 127.756 25.4746 127.693 25.3301C127.631 25.1816 127.545 25.0527 127.436 24.9434C127.326 24.834 127.197 24.748 127.049 24.6855C126.9 24.6191 126.742 24.5859 126.574 24.5859H122.625V30H121.424V23.4023H126.574C126.906 23.4023 127.219 23.4668 127.512 23.5957C127.805 23.7207 128.059 23.8926 128.273 24.1113C128.492 24.3262 128.664 24.5801 128.789 24.873C128.914 25.1621 128.977 25.4707 128.977 25.7988C128.977 26.0684 128.934 26.3281 128.848 26.5781C128.762 26.8242 128.641 27.0508 128.484 27.2578C128.332 27.4609 128.15 27.6367 127.939 27.7852C127.729 27.9336 127.498 28.043 127.248 28.1133L129.193 30ZM137.953 30H136.752V28.1895H132.129V26.9648H136.752V24.5859H133.629C133.336 24.5859 133.061 24.6426 132.803 24.7559C132.545 24.8652 132.32 25.0156 132.129 25.207C131.938 25.3984 131.785 25.623 131.672 25.8809C131.562 26.1348 131.508 26.4082 131.508 26.7012V30H130.295V26.7012C130.295 26.2402 130.383 25.8086 130.559 25.4062C130.734 25.0039 130.973 24.6523 131.273 24.3516C131.574 24.0508 131.928 23.8145 132.334 23.6426C132.74 23.4668 133.172 23.3789 133.629 23.3789H137.953V30ZM146.631 30H142.371C141.906 30 141.484 29.9141 141.105 29.7422C140.727 29.5703 140.402 29.3359 140.133 29.0391C139.863 28.7383 139.654 28.3867 139.506 27.9844C139.361 27.5781 139.289 27.1426 139.289 26.6777C139.289 26.2168 139.361 25.7871 139.506 25.3887C139.654 24.9863 139.863 24.6367 140.133 24.3398C140.402 24.043 140.727 23.8086 141.105 23.6367C141.484 23.4648 141.906 23.3789 142.371 23.3789H146.631V24.5859H142.371C142.082 24.5859 141.82 24.6406 141.586 24.75C141.355 24.8594 141.16 25.0078 141 25.1953C140.84 25.3828 140.717 25.6035 140.631 25.8574C140.545 26.1113 140.502 26.3848 140.502 26.6777C140.502 26.9746 140.545 27.252 140.631 27.5098C140.717 27.7637 140.84 27.9863 141 28.1777C141.16 28.3652 141.355 28.5137 141.586 28.623C141.82 28.7324 142.082 28.7871 142.371 28.7871H146.631V30ZM155.783 30H154.16L150.996 26.8184L149.168 28.1426V30H147.967V23.4023H149.168V26.7598L153.885 23.4023H155.719L151.916 26.1504L155.783 30ZM163.588 30H156.697V23.3789H163.588V24.5859H157.91V28.7871H163.588V30ZM162.82 27.2637H158.479V26.0508H162.82V27.2637ZM172.693 30H171.059L169.184 28.2129H166.752V27.0234H170.074C170.242 27.0234 170.4 26.9902 170.549 26.9238C170.697 26.8574 170.826 26.7695 170.936 26.6602C171.045 26.5469 171.131 26.416 171.193 26.2676C171.256 26.1191 171.287 25.9629 171.287 25.7988C171.287 25.6309 171.256 25.4746 171.193 25.3301C171.131 25.1816 171.045 25.0527 170.936 24.9434C170.826 24.834 170.697 24.748 170.549 24.6855C170.4 24.6191 170.242 24.5859 170.074 24.5859H166.125V30H164.924V23.4023H170.074C170.406 23.4023 170.719 23.4668 171.012 23.5957C171.305 23.7207 171.559 23.8926 171.773 24.1113C171.992 24.3262 172.164 24.5801 172.289 24.873C172.414 25.1621 172.477 25.4707 172.477 25.7988C172.477 26.0684 172.434 26.3281 172.348 26.5781C172.262 26.8242 172.141 27.0508 171.984 27.2578C171.832 27.4609 171.65 27.6367 171.439 27.7852C171.229 27.9336 170.998 28.043 170.748 28.1133L172.693 30Z" fill="black"/>
</svg>
