<svg width="56" height="52" viewBox="0 0 56 52" fill="none" xmlns="http://www.w3.org/2000/svg">
<g id="img">
<path id="Rectangle 7" d="M35.8862 31.4044L46.7466 27.0376C46.7466 27.0376 62.706 31.4044 52.7065 38.639C42.707 45.8736 14.1654 52 14.1654 52C47.3426 42.8102 52.7719 37.1855 35.8862 31.4044Z" fill="#16C79A"/>
<path id="Rectangle 8" d="M32.4426 33.6204C32.4426 33.6204 33.6535 32.8325 34.2306 32.5125C36.4159 33.6204 48.3358 36.2927 38.0052 42.0282C27.6746 47.7636 14.6289 51.6742 14.6289 51.6742C46.9452 39.2256 42.3759 36.8792 32.4426 33.6204Z" fill="#16C79A"/>
<path id="Rectangle 7_2" d="M19.8604 23.2575L9.72844 26.2556C9.72844 26.2556 -6.32419 20.4052 4.36447 14.198C15.0531 7.99083 46.0052 4.32235 46.0052 4.32235C12.0566 10.1785 3.65176 15.8328 19.8604 23.2575Z" fill="#16C79A"/>
<path id="Rectangle 8_2" d="M25.5555 21.8236L23.0391 22.4102C23.0391 22.4102 8.48698 16.8405 19.3517 12.1576C30.2165 7.47475 43.5959 4.87654 43.5959 4.87654C10.6717 13.7171 14.6824 16.8758 25.5555 21.8236Z" fill="#16C79A"/>
<path id="Rectangle 2" d="M10.3245 26.975L27.6354 22.0843L45.1572 26.8421L27.818 33.6856L10.3245 26.975Z" fill="#11698E"/>
<path id="Rectangle 3" d="M21.3836 32.0562L27.8733 34.4677L34.6942 32.0562L36.8133 37.9221C36.8133 37.9221 34.6279 38.7042 27.8733 38.7693C21.1187 38.8345 18.9333 37.9221 18.9333 37.9221L21.3836 32.0562Z" fill="#11698E"/>
<path id="Rectangle 4" d="M27.4111 25.7151L26.4142 25.6365L26.3332 26.6333L26.2803 27.2829L26.1996 28.2756L27.1921 28.3579L39.4552 29.374L39.4552 30.9507L39.4552 31.948L40.4529 31.948L41.1898 31.948L42.1925 31.948L42.1925 30.9457L42.1925 27.8013L42.1925 26.8795L41.2734 26.8071L27.4111 25.7151Z" fill="white" stroke="#11698E" stroke-width="2"/>
<path id="Rectangle 5" d="M39.4876 30.1238L38.9919 30.4133V30.9873V31.9259V32.7084L39.7516 32.8965C40.1297 32.9902 40.4789 33.0507 40.8531 33.0505C41.2271 33.0504 41.5759 32.9898 41.9531 32.8968L42.7137 32.7093V31.9259V30.9873V30.3727L42.1653 30.0951L41.7018 29.8605L41.4888 29.7527H41.2502H40.3937H40.1231L39.8894 29.8892L39.4876 30.1238Z" fill="white" stroke="#11698E" stroke-width="2"/>
<path id="Rectangle 6" d="M39.1531 32.357L38.7271 32.6557V33.1759V34.6929V35.1554L39.0795 35.4549C39.3732 35.7046 39.7318 35.8334 40.0204 35.9042C40.3271 35.9793 40.6552 36.0129 40.9661 36.0129C41.2754 36.0129 41.603 35.9796 41.9056 35.8997C42.1769 35.8281 42.5717 35.6823 42.8608 35.3546L43.111 35.0711V34.6929V33.1759V32.6557L42.685 32.357L42.5856 32.2874L42.4996 32.0163L42.2541 31.2419L41.4459 31.3235C40.9937 31.3692 40.7744 31.3712 40.3354 31.3242L39.4373 31.228L39.2506 32.1117L39.2066 32.3195L39.1531 32.357Z" fill="white" stroke="#11698E" stroke-width="2"/>
</g>
</svg>
